<svg width="72" height="75" viewBox="0 0 72 75" fill="none" xmlns="http://www.w3.org/2000/svg">
<path d="M18.9445 27.6265C18.2952 28.7344 18.8146 29.6303 20.096 29.6219L50.1149 29.4274C51.3962 29.419 51.9446 30.334 51.334 31.4606L37.5543 56.8754C36.9432 58.002 35.8708 58.0455 35.1704 56.9724L18.8398 31.9454C18.1394 30.8723 17.0219 30.8902 16.3574 31.9836L0.54321 58.0085C-0.122094 59.1037 0.381661 60 1.663 60H70.3322C71.6135 60 72.1211 59.1015 71.46 58.0035L37.0288 0.819288C36.3677 -0.278675 35.2964 -0.27218 34.6486 0.833423L18.9445 27.6265Z" fill="url(#paint0_linear_587_4012)"/>
<path d="M4.44 74L2.78 71.15H1.68V74H0.77V67.03H3.02C3.54667 67.03 3.99 67.12 4.35 67.3C4.71667 67.48 4.99 67.7233 5.17 68.03C5.35 68.3367 5.44 68.6867 5.44 69.08C5.44 69.56 5.3 69.9833 5.02 70.35C4.74667 70.7167 4.33333 70.96 3.78 71.08L5.53 74H4.44ZM1.68 70.42H3.02C3.51333 70.42 3.88333 70.3 4.13 70.06C4.37667 69.8133 4.5 69.4867 4.5 69.08C4.5 68.6667 4.37667 68.3467 4.13 68.12C3.89 67.8933 3.52 67.78 3.02 67.78H1.68V70.42ZM10.764 67.77V70.1H13.304V70.85H10.764V73.25H13.604V74H9.85398V67.02H13.604V67.77H10.764ZM17.6409 70.51C17.6409 69.83 17.7943 69.22 18.1009 68.68C18.4076 68.1333 18.8243 67.7067 19.3509 67.4C19.8843 67.0933 20.4743 66.94 21.1209 66.94C21.8809 66.94 22.5443 67.1233 23.1109 67.49C23.6776 67.8567 24.0909 68.3767 24.3509 69.05H23.2609C23.0676 68.63 22.7876 68.3067 22.4209 68.08C22.0609 67.8533 21.6276 67.74 21.1209 67.74C20.6343 67.74 20.1976 67.8533 19.8109 68.08C19.4243 68.3067 19.1209 68.63 18.9009 69.05C18.6809 69.4633 18.5709 69.95 18.5709 70.51C18.5709 71.0633 18.6809 71.55 18.9009 71.97C19.1209 72.3833 19.4243 72.7033 19.8109 72.93C20.1976 73.1567 20.6343 73.27 21.1209 73.27C21.6276 73.27 22.0609 73.16 22.4209 72.94C22.7876 72.7133 23.0676 72.39 23.2609 71.97H24.3509C24.0909 72.6367 23.6776 73.1533 23.1109 73.52C22.5443 73.88 21.8809 74.06 21.1209 74.06C20.4743 74.06 19.8843 73.91 19.3509 73.61C18.8243 73.3033 18.4076 72.88 18.1009 72.34C17.7943 71.8 17.6409 71.19 17.6409 70.51ZM29.5955 67.03V71.44C29.5955 72.06 29.7455 72.52 30.0455 72.82C30.3522 73.12 30.7755 73.27 31.3155 73.27C31.8489 73.27 32.2655 73.12 32.5655 72.82C32.8722 72.52 33.0255 72.06 33.0255 71.44V67.03H33.9355V71.43C33.9355 72.01 33.8189 72.5 33.5855 72.9C33.3522 73.2933 33.0355 73.5867 32.6355 73.78C32.2422 73.9733 31.7989 74.07 31.3055 74.07C30.8122 74.07 30.3655 73.9733 29.9655 73.78C29.5722 73.5867 29.2589 73.2933 29.0255 72.9C28.7989 72.5 28.6855 72.01 28.6855 71.43V67.03H29.5955ZM42.1236 74L40.4636 71.15H39.3636V74H38.4536V67.03H40.7036C41.2303 67.03 41.6736 67.12 42.0336 67.3C42.4003 67.48 42.6736 67.7233 42.8536 68.03C43.0336 68.3367 43.1236 68.6867 43.1236 69.08C43.1236 69.56 42.9836 69.9833 42.7036 70.35C42.4303 70.7167 42.0169 70.96 41.4636 71.08L43.2136 74H42.1236ZM39.3636 70.42H40.7036C41.1969 70.42 41.5669 70.3 41.8136 70.06C42.0603 69.8133 42.1836 69.4867 42.1836 69.08C42.1836 68.6667 42.0603 68.3467 41.8136 68.12C41.5736 67.8933 41.2036 67.78 40.7036 67.78H39.3636V70.42ZM50.6976 74.07C50.0509 74.07 49.4609 73.92 48.9276 73.62C48.3942 73.3133 47.9709 72.89 47.6576 72.35C47.3509 71.8033 47.1976 71.19 47.1976 70.51C47.1976 69.83 47.3509 69.22 47.6576 68.68C47.9709 68.1333 48.3942 67.71 48.9276 67.41C49.4609 67.1033 50.0509 66.95 50.6976 66.95C51.3509 66.95 51.9442 67.1033 52.4776 67.41C53.0109 67.71 53.4309 68.13 53.7376 68.67C54.0442 69.21 54.1976 69.8233 54.1976 70.51C54.1976 71.1967 54.0442 71.81 53.7376 72.35C53.4309 72.89 53.0109 73.3133 52.4776 73.62C51.9442 73.92 51.3509 74.07 50.6976 74.07ZM50.6976 73.28C51.1842 73.28 51.6209 73.1667 52.0076 72.94C52.4009 72.7133 52.7076 72.39 52.9276 71.97C53.1542 71.55 53.2676 71.0633 53.2676 70.51C53.2676 69.95 53.1542 69.4633 52.9276 69.05C52.7076 68.63 52.4042 68.3067 52.0176 68.08C51.6309 67.8533 51.1909 67.74 50.6976 67.74C50.2042 67.74 49.7642 67.8533 49.3776 68.08C48.9909 68.3067 48.6842 68.63 48.4576 69.05C48.2376 69.4633 48.1276 69.95 48.1276 70.51C48.1276 71.0633 48.2376 71.55 48.4576 71.97C48.6842 72.39 48.9909 72.7133 49.3776 72.94C49.7709 73.1667 50.2109 73.28 50.6976 73.28ZM62.3389 67.03V67.77H59.3089V70.12H61.7689V70.86H59.3089V74H58.3989V67.03H62.3389ZM71.318 67.03L69.048 71.37V74H68.138V71.37L65.858 67.03H66.868L68.588 70.56L70.308 67.03H71.318Z" fill="#475569"/>
<defs>
<linearGradient id="paint0_linear_587_4012" x1="0.249514" y1="30.0005" x2="71.7502" y2="30.0005" gradientUnits="userSpaceOnUse">
<stop offset="0.04" stop-color="#00FFAA"/>
<stop offset="0.46" stop-color="#4579F5"/>
<stop offset="0.71" stop-color="#745BF5"/>
<stop offset="0.94" stop-color="#9C42F5"/>
</linearGradient>
</defs>
</svg>
