<svg width="38" height="24" viewBox="0 0 38 24" fill="none" xmlns="http://www.w3.org/2000/svg">
<path fill-rule="evenodd" clip-rule="evenodd" d="M18.6316 20.5491C16.6582 22.2125 14.0984 23.2166 11.3011 23.2166C5.0597 23.2166 0 18.2171 0 12.05C0 5.88279 5.0597 0.883301 11.3011 0.883301C14.0984 0.883301 16.6582 1.88746 18.6316 3.55087C20.605 1.88746 23.1649 0.883301 25.9621 0.883301C32.2036 0.883301 37.2632 5.88279 37.2632 12.05C37.2632 18.2171 32.2036 23.2166 25.9621 23.2166C23.1649 23.2166 20.605 22.2125 18.6316 20.5491Z" fill="#ED0006"/>
<path fill-rule="evenodd" clip-rule="evenodd" d="M18.6318 20.5491C21.0617 18.5009 22.6025 15.4532 22.6025 12.05C22.6025 8.64671 21.0617 5.59904 18.6318 3.55087C20.6053 1.88746 23.1651 0.883301 25.9623 0.883301C32.2038 0.883301 37.2635 5.88279 37.2635 12.05C37.2635 18.2171 32.2038 23.2166 25.9623 23.2166C23.1651 23.2166 20.6053 22.2125 18.6318 20.5491Z" fill="#F9A000"/>
<path fill-rule="evenodd" clip-rule="evenodd" d="M18.6318 20.5492C21.0616 18.501 22.6024 15.4533 22.6024 12.0501C22.6024 8.64685 21.0616 5.5992 18.6318 3.55103C16.2019 5.5992 14.6611 8.64685 14.6611 12.0501C14.6611 15.4533 16.2019 18.501 18.6318 20.5492Z" fill="#FF5E00"/>
</svg>
